<svg width="128" height="128" viewBox="0 0 128 128" fill="none" xmlns="http://www.w3.org/2000/svg">
  <rect width="128" height="128" fill="white"/>
  <path d="M30 25H45V60H83V25H98V103H83V75H45V103H30V25Z" fill="black"/>
  <path d="M111 60C111 54.3333 108.8 50 104.4 47C100 44 94.8 42.5 88.8 42.5C82.8 42.5 77.6 44 73.2 47C68.8 50 66.6667 54.3333 66.6667 60V68C66.6667 73.6667 68.8333 78 73.1667 81C77.5 84 82.8333 85.5 89.1667 85.5C95.5 85.5 100.833 84 105.167 81C109.5 78 111.667 73.6667 111.667 68L111 60ZM96 60V68C96 70.6667 95.0833 72.6667 93.25 74C91.4167 75.3333 89 76 86 76C83 76 80.5833 75.3333 78.75 74C76.9167 72.6667 76 70.6667 76 68V60C76 57.3333 76.9167 55.3333 78.75 54C80.5833 52.6667 83 52 86 52C89 52 91.4167 52.6667 93.25 54C95.0833 55.3333 96 57.3333 96 60Z" fill="black"/>
</svg> 